<?xml version="1.0" encoding="UTF-8"?>
<svg version="1.1" xmlns="http://www.w3.org/2000/svg" width="5675" height="1998">
<path d="M0 0 C2.13857428 -0.00274911 4.27714719 -0.00680841 6.41571683 -0.01204365 C12.22035397 -0.02251305 18.02483448 -0.01457908 23.82946455 -0.00329316 C30.11614393 0.00562097 36.40280438 -0.00291487 42.68948364 -0.00915527 C54.26344037 -0.01805617 65.83733377 -0.01351996 77.41128575 -0.00199146 C88.09420389 0.00857655 98.77710437 0.01307995 109.46002769 0.01171303 C110.52609417 0.01158698 110.52609417 0.01158698 111.61369734 0.01145839 C114.4990255 0.01110611 117.38435364 0.01072209 120.26968179 0.01029281 C147.27037955 0.00633774 174.27104608 0.0190032 201.27173491 0.03981938 C225.26190888 0.0582274 249.252053 0.06399033 273.24223328 0.05854797 C274.78581134 0.05820154 276.3293894 0.05785544 277.87296746 0.05750968 C279.01764954 0.05725319 279.01764954 0.05725319 280.18545652 0.05699152 C284.02689091 0.05613798 287.86832531 0.05531419 291.70975971 0.05452251 C292.4676224 0.05436543 293.2254851 0.05420835 294.00631332 0.05404651 C314.07036989 0.05006109 334.13442357 0.05552483 354.1984784 0.06403381 C356.35553489 0.06494083 358.51259138 0.06584648 360.66964787 0.06674904 C362.10049827 0.06735014 363.53134866 0.06795875 364.96219905 0.06857495 C374.9443754 0.07279937 384.92654612 0.07337341 394.90872308 0.07146945 C407.75491344 0.06903137 420.6010657 0.07327733 433.44725011 0.08867946 C439.64296078 0.0959468 445.83862947 0.09998044 452.03434372 0.0954361 C457.69647492 0.09138384 463.35851911 0.09645558 469.02063706 0.10906217 C471.07717007 0.1120094 473.13371119 0.11152935 475.19024221 0.1074191 C477.96860053 0.10236686 480.74666144 0.10942617 483.52499866 0.11974621 C484.3378037 0.11534972 485.15060874 0.11095324 485.98804423 0.10642353 C491.50587067 0.14591583 491.50587067 0.14591583 493.73417664 2.3742218 C493.98585892 4.92610168 493.98585892 4.92610168 493.98814392 8.21992493 C493.99378357 9.46507874 493.99942322 10.71023254 494.00523376 11.99311829 C494.00134481 13.38057003 493.99724845 14.76802121 493.9929657 16.1554718 C493.99567452 17.61063309 493.99923483 19.06579301 494.00358582 20.52095032 C494.01272511 24.47955163 494.00915926 28.43804902 494.00282764 32.39665222 C493.9977756 36.53305854 494.00245688 40.66945577 494.00559998 44.80586243 C494.00924195 51.75314436 494.00443448 58.70038381 493.99491882 65.6476593 C493.98403382 73.68769484 493.98755924 81.72762896 493.99857163 89.76766205 C494.00763794 96.66195292 494.00893301 103.55621321 494.0036943 110.45050812 C494.00057097 114.57198754 494.00017515 118.69341924 494.00676727 122.81489563 C494.01253059 126.68903874 494.00856257 130.56305067 493.99697876 134.43717957 C493.99432672 135.86183962 493.9951065 137.28651065 493.99950409 138.71116638 C494.00493933 140.65027989 493.99692665 142.58941744 493.98814392 144.52851868 C493.98738987 145.61548035 493.98663582 146.70244202 493.98585892 147.82234192 C493.73417664 150.3742218 493.73417664 150.3742218 491.73417664 152.3742218 C488.9756853 152.57118138 486.31758563 152.64110344 483.55788422 152.62476158 C482.69821031 152.62755926 481.83853641 152.63035693 480.95281178 152.63323939 C478.04022337 152.64025922 475.12784148 152.63290987 472.21525574 152.6257782 C470.11858405 152.62791457 468.02191311 152.63093836 465.92524385 152.63477862 C460.13828795 152.64285724 454.35139624 152.63849351 448.56444049 152.63225985 C442.3323026 152.62774317 436.1001773 152.63475752 429.86804199 152.64056396 C419.05794627 152.6492152 408.24787214 152.65100978 397.43777466 152.64861679 C381.06737661 152.64520211 364.69701556 152.6585551 348.32662744 152.67539126 C341.7577173 152.68207312 335.18880661 152.68821173 328.61989594 152.69434547 C327.52502346 152.69537147 327.52502346 152.69537147 326.40803235 152.69641819 C309.02179511 152.71260715 291.63555557 152.72343424 274.24931335 152.73262024 C273.48836817 152.73302627 272.72742299 152.73343231 271.94341887 152.73385064 C254.20686275 152.74326944 236.4703079 152.75014123 218.73374939 152.75257874 C217.9720011 152.7526853 217.21025281 152.75279186 216.42542123 152.75290166 C212.58476875 152.75343477 208.74411627 152.75394953 204.90346378 152.75446303 C204.14447443 152.75456524 203.38548507 152.75466745 202.60349604 152.75477275 C201.07156117 152.75497831 199.53962629 152.75518087 198.00769142 152.75538042 C172.66521394 152.75876541 147.3227734 152.77571678 121.98031514 152.80748196 C118.39657544 152.81195503 114.81283554 152.81624495 111.22909546 152.82040787 C110.17117054 152.82163855 110.17117054 152.82163855 109.0918734 152.8228941 C97.76457644 152.83561748 86.43732764 152.83365866 75.11002821 152.82577342 C63.7084537 152.81806797 52.30697731 152.82485499 40.90541172 152.84541248 C34.73414719 152.8560703 28.56305743 152.86028703 22.3917942 152.84694099 C16.73222062 152.83482502 11.07297355 152.84134536 5.41342801 152.86213298 C3.37549869 152.86640944 1.3375413 152.8640631 -0.70036811 152.85409181 C-16.05941872 152.78445117 -32.1533247 153.56918785 -45.89082336 161.2492218 C-46.87079285 161.76694153 -46.87079285 161.76694153 -47.87055969 162.29512024 C-52.69804518 164.90339804 -57.0892206 167.83043764 -61.26582336 171.3742218 C-62.07019836 171.9826593 -62.87457336 172.5910968 -63.70332336 173.2179718 C-80.13984503 187.04870345 -86.90686327 210.15945088 -88.81660461 230.68525696 C-90.65070526 254.83577718 -86.74862536 280.02071931 -71.26582336 299.3742218 C-70.62129211 300.20566711 -69.97676086 301.03711243 -69.31269836 301.89375305 C-56.54581204 317.28494378 -37.29206979 324.796494 -17.81321895 327.16280103 C-12.19556365 327.62903762 -6.55207123 327.51704373 -0.91891479 327.51225281 C0.54272683 327.51467364 2.00436778 327.51753677 3.46600777 327.52080214 C7.47003298 327.52852688 11.47404102 327.53017305 15.47807276 327.53085327 C19.80224603 327.53269832 24.12640937 327.54030866 28.45057678 327.54733276 C35.94399325 327.55884622 43.43740749 327.56709739 50.93083 327.573452 C62.7966954 327.58380402 74.66253304 327.60437681 86.52838135 327.62657166 C90.59401217 327.63405131 94.65964311 327.64146516 98.72527409 327.64885902 C100.24941818 327.65163487 100.24941818 327.65163487 101.80435307 327.6544668 C113.36665158 327.6753866 124.92895316 327.69421541 136.49125671 327.71211243 C138.07610826 327.7145697 138.07610826 327.7145697 139.69297702 327.71707661 C156.77630393 327.74330467 173.85963299 327.76197983 190.94297146 327.77870433 C208.51619342 327.7961849 226.0893735 327.82509642 243.66256195 327.8635937 C254.48044409 327.88687274 265.2982579 327.90097731 276.11616529 327.90292133 C283.54926396 327.90504664 290.98229501 327.91810734 298.41536324 327.93940066 C302.6898429 327.95131119 306.96418847 327.95866173 311.2386837 327.95268822 C373.82625849 327.87707714 434.42364832 343.08701182 483.73417664 383.3742218 C484.2510907 383.78962219 484.76800476 384.20502258 485.30058289 384.63301086 C499.4289311 396.01032322 512.03415765 408.71502514 522.73417664 423.3742218 C523.90206726 424.95976868 523.90206726 424.95976868 525.09355164 426.5773468 C530.98046706 434.81902839 536.02048056 443.4192262 540.73417664 452.3742218 C541.10010925 453.06129211 541.46604187 453.74836243 541.84306335 454.45625305 C560.63138512 490.22457245 567.19030683 529.50051569 567.04667664 569.4992218 C567.04452148 570.58027191 567.04236633 571.66132202 567.04014587 572.77513123 C566.98988028 588.48690752 566.72847187 603.90098418 563.73417664 619.3742218 C563.54081726 620.40305481 563.34745789 621.43188782 563.14823914 622.49189758 C555.96169147 659.52812586 540.6710722 695.08278889 516.73417664 724.3742218 C516.27817078 724.93850891 515.82216492 725.50279602 515.3523407 726.08418274 C503.53101802 740.63163062 490.05207548 752.60750636 474.73417664 763.3742218 C474.09737976 763.82474915 473.46058289 764.27527649 472.80448914 764.73945618 C452.54817201 778.89820845 430.12649763 789.55782733 406.73417664 797.3742218 C405.61172546 797.75779846 405.61172546 797.75779846 404.46659851 798.14912415 C395.40488882 801.20565321 386.17310581 803.21384211 376.79667664 805.0617218 C375.77332214 805.26442688 374.74996765 805.46713196 373.69560242 805.67597961 C356.2937951 808.94512893 339.26542468 809.6654365 321.60197449 809.62818909 C319.19960451 809.6304975 316.79723523 809.63367656 314.39486742 809.63764358 C309.20157602 809.64422003 304.00832251 809.64468022 298.81503105 809.63954926 C291.09288503 809.63194067 283.37077377 809.63587401 275.64862794 809.64196587 C261.85626374 809.65246274 248.06391814 809.651599 234.27155221 809.64580804 C222.2113266 809.64076931 210.15110779 809.63946713 198.09088135 809.64185333 C197.28971413 809.6420061 196.4885469 809.64215887 195.66310189 809.64231627 C192.41076557 809.64293897 189.15842926 809.64357577 185.90609296 809.6442358 C155.43875564 809.65034518 124.97143016 809.64481886 94.50409467 809.63404201 C67.42664822 809.62453715 40.34922058 809.62541323 13.27177429 809.63496399 C-17.16536386 809.64566397 -47.6024916 809.64992639 -78.03963137 809.64373946 C-81.28094768 809.64309802 -84.522264 809.64247235 -87.76358032 809.64185333 C-88.96068874 809.6416161 -88.96068874 809.6416161 -90.18198116 809.64137408 C-102.24668984 809.63909673 -114.31139099 809.64176383 -126.37609863 809.64681244 C-140.07819623 809.65251772 -153.78027237 809.65112894 -167.48236728 809.64025095 C-175.15610007 809.63436029 -182.82978642 809.63402113 -190.50351804 809.6415433 C-196.21867753 809.64652957 -201.93378847 809.64115788 -207.64894038 809.63159415 C-209.97143664 809.6293452 -212.29393906 809.63052947 -214.61643142 809.63534573 C-217.75356212 809.64135648 -220.89043302 809.6352621 -224.02754974 809.62590408 C-224.94606647 809.63058642 -225.8645832 809.63526875 -226.81093377 809.64009297 C-233.0375222 809.60252296 -233.0375222 809.60252296 -235.26582336 807.3742218 C-235.52029896 804.8407526 -235.52029896 804.8407526 -235.52651978 801.57321167 C-235.53360458 800.33791718 -235.54068939 799.10262268 -235.54798889 797.82989502 C-235.54569486 796.45347559 -235.54318513 795.0770565 -235.54048157 793.70063782 C-235.54482681 792.25695023 -235.55000933 790.81326495 -235.55596924 789.36958313 C-235.56939099 785.44191358 -235.56993438 781.51434006 -235.56740594 777.58665204 C-235.56633834 774.3111639 -235.5712142 771.03569536 -235.57601136 767.76021141 C-235.58711761 760.03444679 -235.58753774 752.30873078 -235.58149719 744.58296204 C-235.5754558 736.60539632 -235.58776999 728.6280069 -235.60906726 720.65047127 C-235.6266646 713.80796639 -235.63268757 706.96551771 -235.62942952 700.12299103 C-235.62761346 696.033306 -235.6302847 691.94374671 -235.64414406 687.85408211 C-235.65668748 684.00861822 -235.65481167 680.16342976 -235.64173317 676.31797028 C-235.63936016 674.90501501 -235.64212792 673.49204058 -235.65035629 672.07910728 C-235.66076331 670.15350177 -235.65095432 668.22781831 -235.64004517 666.30221558 C-235.64021291 665.22355004 -235.64038065 664.14488451 -235.64055347 663.03353214 C-235.20384352 659.93437552 -234.67934508 659.26815668 -232.26582336 657.3742218 C-230.38362776 656.99899563 -230.38362776 656.99899563 -228.21715903 656.99866629 C-226.97433882 656.98755635 -226.97433882 656.98755635 -225.70641112 656.97622198 C-224.7944769 656.98335622 -223.88254268 656.99049045 -222.94297409 656.99784088 C-221.48576785 656.99146421 -221.48576785 656.99146421 -219.9991231 656.98495871 C-216.71221274 656.97426879 -213.42571517 656.98511867 -210.1388092 656.99568176 C-207.77102328 656.99239397 -205.40323888 656.98778249 -203.03545785 656.9819541 C-197.87089144 656.97225299 -192.70640957 656.97188771 -187.54184341 656.97960472 C-179.86148288 656.99101103 -172.18120332 656.98524725 -164.50084357 656.97577395 C-151.57864097 656.96026401 -138.65646989 656.95829273 -125.73426056 656.96353149 C-108.07795893 656.97050806 -90.42170983 656.9578953 -72.76541784 656.94002432 C-64.54151524 656.93172682 -56.31761177 656.92439047 -48.09370804 656.91730499 C-47.27031917 656.9165945 -46.4469303 656.915884 -45.59859026 656.91515197 C-25.98897258 656.89845471 -6.37935315 656.89117424 13.23027039 656.88545227 C14.08848973 656.88519836 14.94670908 656.88494446 15.83093507 656.88468286 C28.8820155 656.88083366 41.93309605 656.87747377 54.98417664 656.8742218 C68.8806611 656.87075824 82.77714548 656.86711141 96.67362976 656.86299133 C97.95753328 656.8626159 97.95753328 656.8626159 99.26737424 656.86223289 C118.81843481 656.85646502 138.36948922 656.84800257 157.92054367 656.83113861 C158.74293866 656.83043035 159.56533365 656.82972208 160.4126497 656.82899236 C168.62467423 656.82185881 176.8366982 656.81425647 185.04872164 656.80595464 C202.67949813 656.78823508 220.31022468 656.7787113 237.94100971 656.78587694 C250.80202079 656.79097872 263.66299255 656.78580437 276.52399531 656.77001655 C284.1593897 656.7610033 291.79467777 656.76038607 299.4300694 656.77186289 C305.14042077 656.77953427 310.85066661 656.77154043 316.56100222 656.75762445 C318.86466223 656.75444425 321.16833608 656.7562928 323.47198609 656.76378983 C348.98176508 656.84086615 371.99290347 653.06400589 391.32402039 634.8664093 C408.54130171 617.06312651 414.19965857 594.20173671 415.04667664 570.0617218 C414.65662049 555.14781048 411.89510159 540.94864747 405.73417664 527.3742218 C405.2198407 526.23469055 404.70550476 525.0951593 404.17558289 523.9210968 C395.34242194 506.04294851 379.37783568 493.17896681 360.65653992 486.64961243 C352.04009165 483.97305741 343.38054501 482.25262306 334.33603859 482.24393654 C333.08697971 482.24031219 331.83792083 482.23668784 330.55101168 482.23295367 C329.17787267 482.23395012 327.80473373 482.23503222 326.43159485 482.2361908 C324.96256668 482.2337707 323.49353918 482.2309078 322.02451265 482.22764146 C317.99542497 482.21990772 313.96635434 482.21827007 309.93726015 482.21759033 C305.58784756 482.21574689 301.23844485 482.20813742 296.88903809 482.20111084 C289.35031381 482.18959219 281.81159177 482.1813437 274.27286148 482.17499161 C262.33566576 482.16464403 250.39849769 482.14407212 238.46131897 482.12187195 C234.37198076 482.11439209 230.28264243 482.10697826 226.19330406 482.09958458 C225.17124959 482.09773401 224.14919512 482.09588345 223.0961693 482.0939768 C211.46346351 482.07305283 199.83075464 482.05422629 188.19804382 482.03633118 C187.13492939 482.03469299 186.07181496 482.03305481 184.97648494 482.03136699 C167.78963 482.00514243 150.60277292 481.98646579 133.4159065 481.96973927 C115.73875521 481.95225908 98.06164555 481.92334733 80.38452756 481.88484991 C69.50145429 481.86156837 58.61844896 481.84746607 47.73535059 481.84552227 C40.25692245 481.84339707 32.77856153 481.83033721 25.30016364 481.80904295 C20.9993627 481.79713128 16.69869506 481.78978265 12.39787865 481.79575539 C-10.99283616 481.82399228 -34.01425365 480.8743139 -56.95332336 475.8117218 C-58.0964801 475.56051575 -59.23963684 475.30930969 -60.41743469 475.05049133 C-89.53290279 468.3459728 -117.53734494 457.27394926 -142.26582336 440.3742218 C-142.85863098 439.97525696 -143.4514386 439.57629211 -144.06221008 439.16523743 C-164.02719507 425.66318932 -182.20212495 408.9956572 -196.26582336 389.3742218 C-196.79498352 388.64058411 -197.32414368 387.90694641 -197.86933899 387.15107727 C-218.56851778 358.12567172 -232.22391476 326.5309933 -238.26582336 291.3742218 C-238.50921448 290.02143127 -238.50921448 290.02143127 -238.75752258 288.64131165 C-244.13310038 257.33647622 -243.96376368 221.61370307 -238.26582336 190.3742218 C-238.08889954 189.3950177 -237.91197571 188.4158136 -237.72969055 187.40693665 C-231.48917584 154.06491199 -218.61970993 122.6452495 -198.26582336 95.3742218 C-197.81207336 94.76497864 -197.35832336 94.15573547 -196.89082336 93.5280304 C-190.49681679 85.02009622 -183.60908545 77.07176407 -176.26582336 69.3742218 C-175.46660461 68.52215149 -174.66738586 67.67008118 -173.84394836 66.79219055 C-143.32088181 35.12201529 -100.83754478 15.59837468 -58.51582336 5.9992218 C-57.5257428 5.77274963 -56.53566223 5.54627747 -55.51557922 5.3129425 C-37.13084857 1.39261489 -18.76163054 -0.07419633 0 0 Z " fill="#2868B9" transform="translate(3848.265823364258,628.6257781982422)"/>
<path d="M0 0 C0.72055911 -0.00205263 1.44111822 -0.00410527 2.18351245 -0.0062201 C4.59884766 -0.01187599 7.01412559 -0.01043457 9.42946625 -0.00901413 C11.17867902 -0.01159865 12.9278912 -0.01461205 14.67710257 -0.01801753 C19.4855046 -0.02608199 24.2938917 -0.02787681 29.10229969 -0.028615 C34.28891461 -0.03046677 39.47552181 -0.03801523 44.66213226 -0.04475021 C56.01053575 -0.05833509 67.3589357 -0.06435988 78.70734596 -0.06876087 C85.80365956 -0.07152579 92.8999718 -0.07576387 99.99628448 -0.08026505 C119.66835952 -0.09246312 139.34043347 -0.10275798 159.01251221 -0.10614014 C160.27189223 -0.1063597 161.53127226 -0.10657927 162.82881531 -0.10680549 C164.09114067 -0.10702377 165.35346603 -0.10724204 166.65404367 -0.10746694 C169.21179358 -0.10791039 171.76954349 -0.10835696 174.3272934 -0.10880661 C175.5960142 -0.10902804 176.864735 -0.10924947 178.17190188 -0.10947761 C198.67602496 -0.11341569 219.18011227 -0.13083694 239.68422157 -0.15416613 C260.76832916 -0.1779599 281.8524189 -0.1903458 302.93654013 -0.19150805 C314.76068409 -0.19242088 326.58478159 -0.19807253 338.40891266 -0.21632767 C348.4906209 -0.23183803 358.57226835 -0.23678578 368.65398628 -0.22858956 C373.78576558 -0.22471994 378.91742293 -0.22542838 384.04918671 -0.23964691 C443.72596085 -0.3951899 500.5976166 8.54197856 554.66127777 35.13142776 C555.56184906 35.57212601 556.46242035 36.01282425 557.39028168 36.46687698 C576.28559039 45.80203866 594.31811324 56.79285616 610.66127777 70.13142776 C611.58682465 70.86619339 612.51237152 71.60095901 613.46596527 72.35799026 C619.47223428 77.17321443 625.17083856 82.26114762 630.80580902 87.49861526 C633.32431676 89.82074142 635.88435518 92.07681313 638.47377777 94.31892776 C641.8752081 97.33022989 644.87854391 100.49751783 647.80580902 103.96736526 C649.8958266 106.40498577 652.08951185 108.72712577 654.28627777 111.06892776 C696.37840116 157.37026349 722.07501336 218.69826919 731.84877777 280.00642776 C732.00370697 280.96009232 732.15863617 281.91375687 732.31826019 282.89632034 C735.86886195 306.46713605 735.97646868 330.07560323 735.96286035 353.84866333 C735.96177376 357.62207149 735.96671654 361.39546346 735.97146577 365.16886806 C735.98248116 374.09666777 735.98304464 383.02442537 735.9769516 391.95222855 C735.97092743 401.06347029 735.98320182 410.17455699 736.00452167 419.28577232 C736.02232812 427.19583024 736.02810928 435.10583969 736.02488393 443.01591682 C736.02309989 447.70143619 736.02540913 452.38684514 736.03959846 457.07234573 C736.31413004 556.30847708 706.6943649 645.69076902 636.16127777 716.81892776 C629.60302697 723.36640031 623.05067505 729.52847818 615.66127777 735.13142776 C614.37888285 736.14039093 613.09773546 737.15094081 611.81752777 738.16267776 C544.31978388 791.13172417 464.37105027 809.4838851 380.16481793 809.40753615 C374.99720745 809.40504131 369.82961413 809.41411643 364.66201019 809.42157364 C354.57365598 809.43424321 344.48532847 809.43612439 334.39696764 809.43377338 C326.19495838 809.43198271 317.99295717 809.43375578 309.79094887 809.43799782 C308.61900294 809.43859301 307.44705702 809.4391882 306.23959758 809.43980142 C303.85815536 809.44101328 301.47671315 809.44222741 299.09527094 809.4434438 C276.82904815 809.45428772 254.56284055 809.45217076 232.29661692 809.44605895 C211.94839858 809.44088251 191.600228 809.45217002 171.2520191 809.47115717 C150.31318258 809.49054462 129.37436865 809.49879062 108.43552309 809.49503392 C96.69764255 809.49312455 84.95980274 809.49558448 73.22192955 809.50974846 C63.23903819 809.52167415 53.25621271 809.52305312 43.27332043 809.51095829 C38.18580808 809.5050804 33.09841618 809.50394039 28.01091194 809.51596069 C23.34609156 809.52685414 18.68149171 809.52367527 14.0166815 809.50969901 C12.33746621 809.5070618 10.65823344 809.50938761 8.97903537 809.51743487 C-11.91350711 809.61054033 -29.71119521 805.58172032 -46.33872223 792.13142776 C-47.04512848 791.60033401 -47.75153473 791.06924026 -48.47934723 790.52205276 C-62.46699267 779.39801978 -70.72733634 760.47428566 -72.86974508 743.09436482 C-73.46342423 737.61392767 -73.47823242 732.16959994 -73.46735668 726.66193485 C-73.46910972 725.53128773 -73.47086276 724.40064061 -73.47266892 723.23573145 C-73.47732422 719.4436118 -73.4748646 715.65153058 -73.472435 711.85940933 C-73.4737516 709.11450147 -73.47656411 706.36959557 -73.47930032 703.6246888 C-73.48444733 697.65478038 -73.48587273 691.68488006 -73.48484421 685.71496964 C-73.48331844 676.83721375 -73.4874829 667.95946683 -73.49271883 659.08171268 C-73.50238841 642.30257929 -73.50520293 625.52344895 -73.50577589 608.7443131 C-73.50623549 595.78602665 -73.50829412 582.8277414 -73.51147652 569.86945534 C-73.51237407 566.13899285 -73.51326388 562.40853036 -73.51415139 558.67806786 C-73.51437244 557.75065434 -73.51459349 556.82324081 -73.51482124 555.86772384 C-73.52097523 529.78207084 -73.52492182 503.69641826 -73.52447796 477.6107645 C-73.52446238 476.62732677 -73.5244468 475.64388904 -73.52443075 474.63065017 C-73.52434764 469.64621726 -73.5242486 464.66178436 -73.52414604 459.67735145 C-73.5241261 458.68743146 -73.52410615 457.69751146 -73.5240856 456.67759389 C-73.52404517 454.67573436 -73.52400337 452.67387483 -73.52396021 450.67201531 C-73.52334748 419.52770346 -73.53085364 388.38340251 -73.54453278 357.23909378 C-73.55989622 322.2455886 -73.56849884 287.25209058 -73.56756955 252.25858182 C-73.56749492 248.52654755 -73.56744622 244.79451329 -73.56741524 241.06247902 C-73.56740358 240.14356322 -73.56739193 239.22464743 -73.56737992 238.2778857 C-73.56734916 223.49586454 -73.5737326 208.71385284 -73.5823475 193.93183449 C-73.59082793 179.07313452 -73.59181087 164.21444837 -73.58523818 149.35574732 C-73.58154515 140.53147784 -73.58336752 131.70725038 -73.59318052 122.88298536 C-73.5991861 116.98342467 -73.59787862 111.08389438 -73.59071002 105.18433508 C-73.58683339 101.82637473 -73.58715098 98.46856173 -73.59416737 95.11059669 C-73.64789023 67.57278806 -71.51038325 42.11909449 -51.33872223 21.13142776 C-37.06673981 7.8867701 -19.64609027 0.01910767 0 0 Z M78.66127777 152.13142776 C78.66127777 318.78142776 78.66127777 485.43142776 78.66127777 657.13142776 C161.48096527 657.25517776 161.48096527 657.25517776 245.97377777 657.38142776 C272.07403046 657.43605179 272.07403046 657.43605179 298.70156097 657.49177933 C314.36985621 657.50516136 314.36985621 657.50516136 330.0381546 657.51320267 C336.98869058 657.51691235 343.93909595 657.53149744 350.88959503 657.55373001 C358.92808473 657.57940418 366.96645046 657.59072251 375.00498135 657.58520757 C379.10672616 657.58282394 383.20819487 657.5862852 387.30988753 657.60828829 C421.88343178 657.78437952 455.37452234 653.78930352 486.66127777 638.13142776 C487.38250824 637.77822464 488.10373871 637.42502151 488.84682465 637.06111526 C502.36512912 630.40373946 514.41435644 622.50598408 525.44252777 612.19392776 C527.4186487 610.35697028 529.45082398 608.65331612 531.53627777 606.94392776 C563.76782244 578.67634322 580.76679675 531.98487923 583.66127777 490.13142776 C583.81696231 484.66354002 583.82903186 479.19697651 583.83827972 473.72737503 C583.84455715 472.08499894 583.85120505 470.44262423 583.85819244 468.80025101 C583.87910317 463.43278848 583.88959049 458.06532612 583.89955902 452.69783401 C583.90361302 450.8355133 583.90773012 448.97319271 583.9119091 447.11087227 C583.93094127 438.34629452 583.94517003 429.58172503 583.95352107 420.81713063 C583.96325186 410.77568082 583.98947017 400.73445388 584.03002197 390.69308239 C584.06044532 382.88530301 584.0750149 375.07758649 584.07830209 367.2697491 C584.08062509 362.6293948 584.08921662 357.98927896 584.11476326 353.34898949 C584.38287158 301.96832414 575.71861144 251.89884537 540.66127777 212.13142776 C539.82080902 211.15818558 538.98034027 210.18494339 538.11440277 209.18220901 C523.30865489 192.31205494 504.86336804 179.32828748 484.4991684 169.97664261 C482.78871781 169.19003528 481.0915467 168.37472726 479.39565277 167.55720901 C449.75732877 153.91928457 418.02089172 151.49525938 385.8822334 151.66713685 C381.68301759 151.68492574 377.48381492 151.67873766 373.28457165 151.67586517 C365.17672595 151.67376032 357.06906112 151.69201421 348.96126158 151.71787049 C339.55961448 151.74694115 330.15807232 151.74986413 320.75637054 151.7530098 C295.99547811 151.77391687 271.23462513 151.82976194 246.47377777 151.88142776 C191.09565277 151.96392776 135.71752777 152.04642776 78.66127777 152.13142776 Z " fill="#276ABA" transform="translate(2733.338722229004,628.8685722351074)"/>
<path d="M0 0 C8.77482106 7.43604239 17.07817703 15.81709671 24.58203125 24.53125 C28.38227512 28.93023231 32.47947797 32.99113758 36.625 37.0625 C41.40380802 41.7558195 45.99655094 46.50241978 50.36523438 51.58007812 C53.45894006 55.06521827 56.79936478 58.30057426 60.125 61.5625 C64.73302955 66.08225312 69.13517797 70.67182227 73.34765625 75.5625 C76.44886585 79.05221278 79.79334132 82.2946662 83.125 85.5625 C87.73302955 90.08225312 92.13517797 94.67182227 96.34765625 99.5625 C99.44886585 103.05221278 102.79334132 106.2946662 106.125 109.5625 C110.73302955 114.08225312 115.13517797 118.67182227 119.34765625 123.5625 C122.44886585 127.05221278 125.79334132 130.2946662 129.125 133.5625 C133.73302955 138.08225312 138.13517797 142.67182227 142.34765625 147.5625 C145.44886585 151.05221278 148.79334132 154.2946662 152.125 157.5625 C156.08367373 161.44533707 159.97558338 165.32590662 163.59375 169.53125 C167.38642048 173.93453182 171.48073206 177.99236924 175.625 182.0625 C180.40380802 186.7558195 184.99655094 191.50241978 189.36523438 196.58007812 C192.45894006 200.06521827 195.79936478 203.30057426 199.125 206.5625 C203.73302955 211.08225312 208.13517797 215.67182227 212.34765625 220.5625 C215.44886585 224.05221278 218.79334132 227.2946662 222.125 230.5625 C226.73302955 235.08225312 231.13517797 239.67182227 235.34765625 244.5625 C238.44886585 248.05221278 241.79334132 251.2946662 245.125 254.5625 C249.73302955 259.08225312 254.13517797 263.67182227 258.34765625 268.5625 C261.44886585 272.05221278 264.79334132 275.2946662 268.125 278.5625 C272.73302955 283.08225312 277.13517797 287.67182227 281.34765625 292.5625 C284.44886585 296.05221278 287.79334132 299.2946662 291.125 302.5625 C295.08367373 306.44533707 298.97558338 310.32590662 302.59375 314.53125 C306.38642048 318.93453182 310.48073206 322.99236924 314.625 327.0625 C319.40380802 331.7558195 323.99655094 336.50241978 328.36523438 341.58007812 C331.45894006 345.06521827 334.79936478 348.30057426 338.125 351.5625 C342.73302955 356.08225312 347.13517797 360.67182227 351.34765625 365.5625 C354.44886585 369.05221278 357.79334132 372.2946662 361.125 375.5625 C365.73302955 380.08225312 370.13517797 384.67182227 374.34765625 389.5625 C377.44886585 393.05221278 380.79334132 396.2946662 384.125 399.5625 C388.73302955 404.08225312 393.13517797 408.67182227 397.34765625 413.5625 C400.44886585 417.05221278 403.79334132 420.2946662 407.125 423.5625 C411.73302955 428.08225312 416.13517797 432.67182227 420.34765625 437.5625 C423.44886585 441.05221278 426.79334132 444.2946662 430.125 447.5625 C434.08367373 451.44533707 437.97558338 455.32590662 441.59375 459.53125 C445.38642048 463.93453182 449.48073206 467.99236924 453.625 472.0625 C458.40380802 476.7558195 462.99655094 481.50241978 467.36523438 486.58007812 C470.45894006 490.06521827 473.79936478 493.30057426 477.125 496.5625 C481.73302955 501.08225312 486.13517797 505.67182227 490.34765625 510.5625 C493.44886585 514.05221278 496.79334132 517.2946662 500.125 520.5625 C504.08760869 524.44919664 507.98284208 528.33419995 511.60546875 532.54296875 C515.33659337 536.87564852 519.35870849 540.87181167 523.4375 544.875 C524.85258439 546.26456438 526.26544599 547.656397 527.67578125 549.05078125 C528.29106689 549.65446533 528.90635254 550.25814941 529.5402832 550.88012695 C531.125 552.5625 531.125 552.5625 533.125 555.5625 C533.12635653 554.38466434 533.12771306 553.20682868 533.12911069 551.99330103 C533.18899795 500.10859401 533.25134599 448.22389052 533.32632446 396.33920288 C533.32745809 395.55425518 533.32859171 394.76930749 533.32975969 393.9605735 C533.35440851 376.90341703 533.37950126 359.84626125 533.40505161 342.78910611 C533.41757796 334.42483388 533.43000617 326.06056151 533.44238281 317.69628906 C533.44361614 316.8639232 533.44484946 316.03155734 533.44612016 315.17396827 C533.48608255 288.17244529 533.51955845 261.17091897 533.54968691 234.16938338 C533.58067017 206.43235077 533.61816482 178.69533445 533.66390612 150.95832206 C533.67035695 147.04475891 533.67673299 143.13119564 533.68306351 139.21763229 C533.68431181 138.44735232 533.68556012 137.67707235 533.68684625 136.88345056 C533.70678479 124.46127805 533.719816 112.03910733 533.73029328 99.61692363 C533.74096118 87.14224274 533.75883663 74.66758893 533.78416704 62.19292904 C533.79770086 55.42828339 533.80770685 48.66367577 533.80921364 41.89901543 C533.8106613 35.71599338 533.82116822 29.53305792 533.83913441 23.35006242 C533.84401692 21.10374777 533.8454649 18.85742273 533.84327881 16.61110385 C533.84080864 13.57645505 533.85042381 10.54208766 533.86328697 7.50747108 C533.85963729 6.6191047 533.85598761 5.73073832 533.85222733 4.81545174 C533.8967084 -1.2092084 533.8967084 -1.2092084 536.125 -3.4375 C538.67687988 -3.68918228 538.67687988 -3.68918228 541.97070312 -3.69146729 C543.21585693 -3.69710693 544.46101074 -3.70274658 545.74389648 -3.70855713 C547.13134823 -3.70466817 548.51879941 -3.70057181 549.90625 -3.69628906 C551.36141129 -3.69899788 552.81657121 -3.7025582 554.27172852 -3.70690918 C558.23032983 -3.71604848 562.18882722 -3.71248262 566.14743042 -3.70615101 C570.28383674 -3.70109896 574.42023397 -3.70578024 578.55664062 -3.70892334 C585.50392256 -3.71256531 592.45116201 -3.70775784 599.3984375 -3.69824219 C607.43847304 -3.68735718 615.47840716 -3.6908826 623.51844025 -3.701895 C630.41273112 -3.71096131 637.30699141 -3.71225638 644.20128632 -3.70701766 C648.32276574 -3.70389433 652.44419744 -3.70349851 656.56567383 -3.71009064 C660.43981694 -3.71585396 664.31382887 -3.71188593 668.18795776 -3.70030212 C669.61261782 -3.69765008 671.03728885 -3.69842986 672.46194458 -3.70282745 C674.40105809 -3.70826269 676.34019564 -3.70025001 678.27929688 -3.69146729 C679.90973938 -3.69033621 679.90973938 -3.69033621 681.57312012 -3.68918228 C684.125 -3.4375 684.125 -3.4375 686.125 -1.4375 C686.376233 0.78518227 686.376233 0.78518227 686.37799966 3.62074435 C686.38351915 4.70050248 686.38903864 5.78026062 686.39472538 6.8927387 C686.39061475 8.09098323 686.38650411 9.28922776 686.38226891 10.52378273 C686.38577498 11.79264226 686.38928105 13.06150179 686.39289337 14.36881161 C686.40240548 17.91825116 686.39933336 21.46758882 686.39433783 25.01703358 C686.39108637 28.86837494 686.39934109 32.7196938 686.40615618 36.57102811 C686.41649124 43.33044731 686.41929392 50.08983784 686.41724396 56.84926414 C686.41420287 66.90122949 686.42249832 76.95316294 686.43299321 87.0051221 C686.45237311 106.00330499 686.457963 125.00147712 686.45910732 143.99966873 C686.46002542 158.67387745 686.46413693 173.34808193 686.47050858 188.02228928 C686.47230362 192.24211514 686.47408324 196.461941 686.47585833 200.68176687 C686.47652148 202.25527652 686.47652148 202.25527652 686.47719802 203.86057424 C686.48951396 233.38531358 686.49739843 262.91005145 686.49651146 292.43479347 C686.4964803 293.54885172 686.49644914 294.66290997 686.49641704 295.81072755 C686.49625082 301.45754011 686.49605274 307.10435267 686.49584763 312.75116523 C686.49578779 314.43344482 686.49578779 314.43344482 686.49572675 316.14970987 C686.49564587 318.41770198 686.49556228 320.68569408 686.49547596 322.95368619 C686.49425118 358.21881511 686.50924706 393.48390553 686.53662109 428.74902344 C686.56734916 468.35155634 686.584553 507.95406394 686.58269465 547.55660951 C686.58254539 551.78083634 686.58244797 556.00506317 686.58238602 560.22929001 C686.58235105 561.78950082 686.58235105 561.78950082 686.58231538 563.38123105 C686.58225385 580.1168317 686.59502383 596.85239895 686.61225055 613.58798967 C686.62921354 630.41579383 686.63117579 647.24354916 686.6180319 664.07135715 C686.61064596 674.06609015 686.61428994 684.06067473 686.63391658 694.05539197 C686.64592887 700.73795231 686.6433116 707.42040533 686.62897559 714.10296077 C686.62122285 717.90665743 686.61963075 721.7100672 686.63589029 725.51374348 C686.77493687 760.2849149 686.77493687 760.2849149 678.4375 775.875 C678.0964624 776.53177734 677.7554248 777.18855469 677.40405273 777.86523438 C667.19033287 796.83257801 650.57618873 808.27036565 630.5 814.65234375 C610.80271436 819.96422749 589.1207891 817.07410856 571.2734375 807.4765625 C561.4426482 801.50002807 553.33406919 793.45651123 545.85546875 784.78125 C542.13579652 780.50629131 538.16879672 776.52882935 534.125 772.5625 C529.51697045 768.04274688 525.11482203 763.45317773 520.90234375 758.5625 C517.80113415 755.07278722 514.45665868 751.8303338 511.125 748.5625 C506.50674047 744.03271287 502.0930272 739.43290516 497.87109375 734.53125 C494.93887042 731.22511899 491.78089331 728.15332335 488.625 725.0625 C484.83087028 721.34659976 481.12363434 717.61937536 477.65625 713.59375 C474.01433509 709.3701119 470.10465701 705.46591837 466.125 701.5625 C461.50674047 697.03271287 457.0930272 692.43290516 452.87109375 687.53125 C449.93887042 684.22511899 446.78089331 681.15332335 443.625 678.0625 C439.83087028 674.34659976 436.12363434 670.61937536 432.65625 666.59375 C429.01433509 662.3701119 425.10465701 658.46591837 421.125 654.5625 C416.51697045 650.04274688 412.11482203 645.45317773 407.90234375 640.5625 C404.80113415 637.07278722 401.45665868 633.8303338 398.125 630.5625 C393.50674047 626.03271287 389.0930272 621.43290516 384.87109375 616.53125 C381.93887042 613.22511899 378.78089331 610.15332335 375.625 607.0625 C371.83087028 603.34659976 368.12363434 599.61937536 364.65625 595.59375 C361.01433509 591.3701119 357.10465701 587.46591837 353.125 583.5625 C348.50674047 579.03271287 344.0930272 574.43290516 339.87109375 569.53125 C336.93887042 566.22511899 333.78089331 563.15332335 330.625 560.0625 C326.83087028 556.34659976 323.12363434 552.61937536 319.65625 548.59375 C316.01433509 544.3701119 312.10465701 540.46591837 308.125 536.5625 C303.51697045 532.04274688 299.11482203 527.45317773 294.90234375 522.5625 C291.80113415 519.07278722 288.45665868 515.8303338 285.125 512.5625 C280.50674047 508.03271287 276.0930272 503.43290516 271.87109375 498.53125 C268.93887042 495.22511899 265.78089331 492.15332335 262.625 489.0625 C258.83087028 485.34659976 255.12363434 481.61937536 251.65625 477.59375 C248.01433509 473.3701119 244.10465701 469.46591837 240.125 465.5625 C235.51697045 461.04274688 231.11482203 456.45317773 226.90234375 451.5625 C223.80113415 448.07278722 220.45665868 444.8303338 217.125 441.5625 C212.50674047 437.03271287 208.0930272 432.43290516 203.87109375 427.53125 C200.93887042 424.22511899 197.78089331 421.15332335 194.625 418.0625 C190.83087028 414.34659976 187.12363434 410.61937536 183.65625 406.59375 C180.01433509 402.3701119 176.10465701 398.46591837 172.125 394.5625 C167.50674047 390.03271287 163.0930272 385.43290516 158.87109375 380.53125 C155.93887042 377.22511899 152.78089331 374.15332335 149.625 371.0625 C145.83087028 367.34659976 142.12363434 363.61937536 138.65625 359.59375 C135.01433509 355.3701119 131.10465701 351.46591837 127.125 347.5625 C122.51697045 343.04274688 118.11482203 338.45317773 113.90234375 333.5625 C110.80113415 330.07278722 107.45665868 326.8303338 104.125 323.5625 C99.50674047 319.03271287 95.0930272 314.43290516 90.87109375 309.53125 C87.93887042 306.22511899 84.78089331 303.15332335 81.625 300.0625 C77.83087028 296.34659976 74.12363434 292.61937536 70.65625 288.59375 C67.01433509 284.3701119 63.10465701 280.46591837 59.125 276.5625 C55.28189657 272.79301924 51.4856846 269.04344426 48 264.9375 C44.497601 260.84767503 40.69998265 257.08105918 36.8828125 253.2890625 C36.23256104 252.64106689 35.58230957 251.99307129 34.91235352 251.32543945 C33.31770332 249.73664656 31.7218929 248.14903821 30.125 246.5625 C30.12364347 247.74033566 30.12228694 248.91817132 30.12088931 250.13169897 C30.06100205 302.01640599 29.99865401 353.90110948 29.92367554 405.78579712 C29.92254191 406.57074482 29.92140829 407.35569251 29.92024031 408.1644265 C29.89559149 425.22158297 29.87049874 442.27873875 29.84494839 459.33589389 C29.83242204 467.70016612 29.81999383 476.06443849 29.80761719 484.42871094 C29.80638386 485.2610768 29.80515054 486.09344266 29.80387984 486.95103173 C29.76391745 513.95255471 29.73044155 540.95408103 29.70031309 567.95561662 C29.66932983 595.69264923 29.63183518 623.42966555 29.58609388 651.16667794 C29.57964305 655.08024109 29.57326701 658.99380436 29.56693649 662.90736771 C29.56568819 663.67764768 29.56443988 664.44792765 29.56315375 665.24154944 C29.54321521 677.66372195 29.530184 690.08589267 29.51970672 702.50807637 C29.50903882 714.98275726 29.49116337 727.45741107 29.46583296 739.93207096 C29.45229914 746.69671661 29.44229315 753.46132423 29.44078636 760.22598457 C29.4393387 766.40900662 29.42883178 772.59194208 29.41086559 778.77493758 C29.40598308 781.02125223 29.4045351 783.26757727 29.40672119 785.51389615 C29.40919136 788.54854495 29.39957619 791.58291234 29.38671303 794.61752892 C29.39036271 795.5058953 29.39401239 796.39426168 29.39777267 797.30954826 C29.3532916 803.3342084 29.3532916 803.3342084 27.125 805.5625 C24.57312012 805.81418228 24.57312012 805.81418228 21.27929688 805.81646729 C20.03414307 805.82210693 18.78898926 805.82774658 17.50610352 805.83355713 C16.11865177 805.82966817 14.73120059 805.82557181 13.34375 805.82128906 C11.88858871 805.82399788 10.43342879 805.8275582 8.97827148 805.83190918 C5.01967017 805.84104848 1.06117278 805.83748262 -2.89743042 805.83115101 C-7.03383674 805.82609896 -11.17023397 805.83078024 -15.30664062 805.83392334 C-22.25392256 805.83756531 -29.20116201 805.83275784 -36.1484375 805.82324219 C-44.18847304 805.81235718 -52.22840716 805.8158826 -60.26844025 805.826895 C-67.16273112 805.83596131 -74.05699141 805.83725638 -80.95128632 805.83201766 C-85.07276574 805.82889433 -89.19419744 805.82849851 -93.31567383 805.83509064 C-97.18981694 805.84085396 -101.06382887 805.83688593 -104.93795776 805.82530212 C-106.36261782 805.82265008 -107.78728885 805.82342986 -109.21194458 805.82782745 C-111.15105809 805.83326269 -113.09019564 805.82525001 -115.02929688 805.81646729 C-116.11625854 805.81571323 -117.20322021 805.81495918 -118.32312012 805.81418228 C-120.875 805.5625 -120.875 805.5625 -122.875 803.5625 C-123.12528767 801.3665972 -123.12528767 801.3665972 -123.12569833 798.56952661 C-123.13070536 797.50435887 -123.1357124 796.43919113 -123.14087117 795.34174559 C-123.13618883 794.15983036 -123.1315065 792.97791513 -123.12668228 791.76018429 C-123.1310426 789.88266999 -123.1310426 789.88266999 -123.13549101 787.96722612 C-123.14333214 784.46596708 -123.13859161 780.96481726 -123.13193511 777.46355985 C-123.12688879 773.6644405 -123.13337078 769.86533868 -123.13842177 766.06622177 C-123.14566805 759.39845365 -123.14541202 752.73071787 -123.14032745 746.06294823 C-123.13278661 736.14722101 -123.13661755 726.23152126 -123.14274407 716.31579424 C-123.15329817 698.60576771 -123.15235337 680.89575557 -123.14658624 663.18572765 C-123.14156109 647.67830666 -123.14023891 632.17089095 -123.14263153 616.66346931 C-123.1427843 615.63601826 -123.14293707 614.6085672 -123.14309447 613.54998126 C-123.14371713 609.37937309 -123.14435393 605.20876493 -123.145014 601.03815676 C-123.15113859 561.87356794 -123.14557589 522.7089883 -123.1348202 483.54440089 C-123.1253389 448.75591403 -123.12616858 413.96744181 -123.13574219 379.17895508 C-123.14645775 340.11001758 -123.15069366 301.0410882 -123.14451766 261.97214943 C-123.14387623 257.80435535 -123.14325054 253.63656126 -123.14263153 249.46876717 C-123.14247338 248.44252555 -123.14231522 247.41628394 -123.14215227 246.35894409 C-123.13987888 230.87241087 -123.14253523 215.38588353 -123.14759064 199.89935112 C-123.1533149 182.27584188 -123.15186777 164.65234931 -123.14102915 147.02884214 C-123.13516549 137.16989066 -123.13476022 127.3109753 -123.1423215 117.45202478 C-123.14681944 110.85869433 -123.14399137 104.26539273 -123.13531196 97.67206654 C-123.13057338 93.92021688 -123.12888783 90.16843877 -123.13612393 86.41659146 C-123.19227019 54.91113041 -121.40730151 29.72442647 -98.625 5.9375 C-72.30344473 -19.80872073 -29.37799812 -22.21741761 0 0 Z " fill="#2A6BBA" transform="translate(4683.875,632.4375)"/>
<path d="M0 0 C1.51106923 -0.00302993 3.02213693 -0.00692358 4.53320199 -0.01159257 C8.63687082 -0.02177414 12.74045132 -0.01971614 16.84412706 -0.01541197 C21.28957749 -0.01292644 25.73500764 -0.02198175 30.18045044 -0.02944946 C38.8735717 -0.04215109 47.566662 -0.04399559 56.25979098 -0.0416492 C63.33725297 -0.03985968 70.41470564 -0.04162923 77.49216652 -0.04587364 C78.50295865 -0.04646883 79.51375079 -0.04706402 80.55517298 -0.04767724 C82.60931823 -0.04888913 84.66346348 -0.05010327 86.71760873 -0.05131962 C105.95356609 -0.06217909 125.1895059 -0.06004106 144.42546425 -0.05393478 C161.96149723 -0.04877509 179.4974745 -0.05999883 197.03349646 -0.07903299 C215.09513647 -0.0984852 233.15675024 -0.10665401 251.21840078 -0.10290974 C261.33599989 -0.10100782 271.45355171 -0.10338527 281.5711422 -0.11762428 C290.19129439 -0.1296341 298.81137022 -0.13083741 307.43152364 -0.11883412 C311.81592901 -0.11301 316.20019541 -0.11166213 320.58459091 -0.12383652 C388.69006614 -0.29963587 454.49208665 15.11163036 507.30036926 60.26069641 C508.0725177 60.92069641 508.84466614 61.58069641 509.64021301 62.26069641 C564.50449171 110.46092794 597.31882731 182.3509545 602.17218399 254.88718414 C602.99604379 270.14198922 602.73824121 285.47575104 602.69148254 300.74653625 C602.67443336 306.36799707 602.68452069 311.98903047 602.70180416 317.61047649 C602.80644547 357.70427655 601.23519282 396.90557446 588.30036926 435.26069641 C588.05093567 436.01802063 587.80150208 436.77534485 587.54450989 437.55561829 C573.31950818 480.30375968 546.97644506 520.40832145 511.30036926 548.26069641 C510.69483215 548.74264465 510.08929504 549.2245929 509.46540833 549.72114563 C458.55738928 590.21788166 394.72144554 612.47173371 329.65298462 612.39440918 C328.22013356 612.39628202 326.787283 612.39858458 325.35443324 612.4012745 C321.45411711 612.4073393 317.55382258 612.40726529 313.65350282 612.40608013 C309.43347308 612.40587479 305.21345003 612.41140705 300.99342346 612.4161377 C292.74410577 612.42441263 284.49479522 612.42719099 276.24547372 612.42775007 C269.54433138 612.42822619 262.84319139 612.43028567 256.14204979 612.4334507 C237.13753856 612.44224415 218.13303297 612.44687145 199.12851969 612.44612022 C198.10588191 612.44608027 197.08324412 612.44604031 196.02961731 612.44599915 C195.00573135 612.44595826 193.9818454 612.44591738 192.9269326 612.44587526 C176.2939612 612.44546787 159.66101235 612.45506417 143.02804748 612.46913751 C125.94409718 612.48347855 108.8601579 612.49040914 91.77620143 612.48954374 C82.1864827 612.48921126 72.59678767 612.49198126 63.00707436 612.50272179 C54.85307985 612.5117963 46.69911983 612.51402684 38.54512248 612.50721236 C34.38283752 612.5039333 30.22061885 612.50394036 26.05834007 612.51256561 C22.25362696 612.52036939 18.4490334 612.51906275 14.64432343 612.51028148 C13.2631238 612.50873301 11.88191551 612.51061265 10.50072608 612.51614156 C8.63321074 612.52312631 6.76565935 612.51675584 4.89814472 612.50958538 C3.857923 612.50980275 2.81770127 612.51002012 1.74595767 612.51024407 C-0.69963074 612.26069641 -0.69963074 612.26069641 -2.69963074 610.26069641 C-2.95131302 607.70881653 -2.95131302 607.70881653 -2.95359802 604.41499329 C-2.9620575 602.54726257 -2.9620575 602.54726257 -2.97068787 600.64179993 C-2.96679891 599.25434818 -2.96270255 597.866897 -2.9584198 596.47944641 C-2.96112862 595.02428512 -2.96468893 593.5691252 -2.96903992 592.1139679 C-2.97817921 588.15536658 -2.97461336 584.19686919 -2.96828175 580.23826599 C-2.9632297 576.10185967 -2.96791098 571.96546244 -2.97105408 567.82905579 C-2.97469605 560.88177385 -2.96988858 553.9345344 -2.96037292 546.98725891 C-2.94948792 538.94722337 -2.95301334 530.90728925 -2.96402574 522.86725616 C-2.97309204 515.97296529 -2.97438711 509.078705 -2.9691484 502.1844101 C-2.96602507 498.06293067 -2.96562925 493.94149897 -2.97222137 489.82002258 C-2.9779847 485.94587947 -2.97401667 482.07186754 -2.96243286 478.19773865 C-2.95978082 476.7730786 -2.9605606 475.34840756 -2.96495819 473.92375183 C-2.97039343 471.98463832 -2.96238075 470.04550078 -2.95359802 468.10639954 C-2.95246695 466.47595703 -2.95246695 466.47595703 -2.95131302 464.81257629 C-2.69963074 462.26069641 -2.69963074 462.26069641 -0.69963074 460.26069641 C1.68430543 460.01049006 1.68430543 460.01049006 4.74806595 460.01015663 C5.91238498 460.00515793 7.07670401 460.00015924 8.27630544 459.99500906 C9.5667227 459.99967228 10.85713995 460.00433549 12.18666077 460.00914001 C13.56276697 460.00700315 14.93887204 460.00397898 16.31497455 460.00013959 C20.11034545 459.99206704 23.90561836 459.99642192 27.70098901 460.00265837 C31.79003674 460.00717802 35.87906534 460.00015883 39.96810913 459.99435425 C47.06221947 459.98570397 54.15630486 459.9839175 61.25041962 459.98630142 C71.53136785 459.98939712 81.81226092 459.97776497 92.09319529 459.96175162 C108.80368714 459.93575598 125.51417904 459.91575881 142.22468567 459.90229797 C143.22562101 459.9014876 144.22655636 459.90067723 145.25782308 459.89984231 C159.42317168 459.88865066 173.58851636 459.88334697 187.75386879 459.88045518 C189.24617607 459.8801492 189.24617607 459.8801492 190.76863098 459.87983704 C191.76228417 459.8796371 192.75593737 459.87943716 193.77970126 459.87923117 C210.40238293 459.87548651 227.02500523 459.85631462 243.64765716 459.82474267 C253.88784409 459.80590508 264.12787815 459.79981896 274.36807755 459.81055985 C281.40595753 459.81692224 288.4437288 459.8087177 295.481585 459.78950574 C299.5308962 459.77891516 303.57994281 459.77451389 307.62925148 459.78797722 C348.96253605 459.91458386 388.46887584 451.99122624 419.38240051 422.29975891 C430.50116466 411.0892255 438.4518229 396.31526557 443.61286926 381.51069641 C443.84328918 380.86971008 444.07370911 380.22872375 444.31111145 379.5683136 C449.14694644 364.71995684 449.77660639 348.94552217 449.76911926 333.47163391 C449.77625631 331.63053671 449.78396014 329.78944163 449.79219055 327.948349 C449.80550796 324.11799417 449.80726307 320.28784498 449.80134583 316.45747375 C449.79663786 312.58671476 449.81048087 308.71677505 449.84236145 304.84614563 C450.20328941 260.51313265 444.41228115 216.39047595 412.17536926 183.04194641 C393.62706797 164.64526611 366.0067948 153.15946746 339.88153553 153.12926865 C338.62794296 153.1254275 337.37435039 153.12158636 336.08277017 153.11762881 C334.70460429 153.11840891 333.32643847 153.11928766 331.94827271 153.12025452 C330.47410431 153.11766859 328.99993662 153.1146548 327.52576989 153.11125112 C323.48298574 153.10320469 319.44021937 153.10139286 315.39742815 153.10065365 C311.03394957 153.098799 306.67048012 153.09124964 302.30700684 153.08451843 C292.76973097 153.07095176 283.23245932 153.0649131 273.69517541 153.06050777 C267.73756016 153.05774276 261.77994653 153.05350496 255.82233238 153.0490036 C239.31988407 153.03681355 222.81743704 153.02651343 206.31498432 153.02312851 C205.25934408 153.02290894 204.20370385 153.02268938 203.11607451 153.02246316 C201.52888076 153.02213574 201.52888076 153.02213574 199.90962249 153.02180171 C197.76553873 153.02135825 195.62145497 153.02091168 193.47737122 153.02046204 C192.41383736 153.02024061 191.35030351 153.02001918 190.25454136 153.01979104 C173.02331409 153.0158434 155.79212912 152.99838923 138.56091819 152.97510251 C120.86012271 152.95137469 103.15934844 152.93892602 85.4585368 152.93776059 C75.52410559 152.93684468 65.5897295 152.93111349 55.65531349 152.91294098 C47.19585812 152.89752075 38.73647492 152.89243091 30.27700815 152.90067908 C25.96362591 152.90457865 21.65038894 152.90368991 17.33702469 152.88962173 C13.38223762 152.87684139 9.42770438 152.87811634 5.47291746 152.89021245 C4.0482903 152.8921623 2.6236449 152.88912417 1.19904331 152.88036808 C-15.09711878 152.7866114 -29.29766647 156.09122091 -41.37150574 167.55757141 C-54.91258453 183.27976357 -54.13901758 203.56489447 -54.0848999 223.05079651 C-54.08891045 225.57345968 -54.0942388 228.09612103 -54.10076565 230.61877894 C-54.11194135 236.08731747 -54.11393996 241.55573826 -54.10770607 247.02428246 C-54.09850032 255.15576065 -54.10658783 263.28715869 -54.11820316 271.41863057 C-54.13730256 285.10045991 -54.14285077 298.78226256 -54.14088631 312.4641037 C-54.13904488 326.0060625 -54.14427232 339.54799122 -54.15856743 353.08994293 C-54.15945731 353.93297552 -54.16034719 354.7760081 -54.16126403 355.64458713 C-54.16583399 359.92622764 -54.17055109 364.20786797 -54.17533886 368.48950824 C-54.18503633 377.19431776 -54.1937683 385.89912823 -54.20220089 394.60393906 C-54.20304514 395.47519365 -54.2038894 396.34644825 -54.20475924 397.24410451 C-54.22459073 417.96268506 -54.23459719 438.68126881 -54.24333191 459.39985657 C-54.24390891 460.75906248 -54.24390891 460.75906248 -54.24449756 462.14572709 C-54.24761389 469.48828751 -54.25070505 476.83084793 -54.25375527 484.17340837 C-54.26256502 505.34426988 -54.27378432 526.51512975 -54.28630066 547.68598938 C-54.28683401 548.59346194 -54.28736736 549.50093449 -54.28791687 550.43590622 C-54.30012657 571.14359755 -54.31441055 591.85128551 -54.33385372 612.55897141 C-54.33466858 613.42850479 -54.33548344 614.29803817 -54.33632299 615.19392105 C-54.34448817 623.87276094 -54.35292497 632.55160051 -54.36181288 641.2304397 C-54.38082548 659.89080077 -54.39379157 678.55114026 -54.39480763 697.21151153 C-54.39559886 710.8024433 -54.40295809 724.39335691 -54.41733737 737.98428127 C-54.4256364 746.06679965 -54.42818859 754.14927483 -54.42278719 762.23179589 C-54.41935787 768.25142944 -54.42618605 774.27100375 -54.43712699 780.29063031 C-54.43991324 782.73706693 -54.43925213 785.18351018 -54.43494589 787.62994459 C-54.42959555 790.93429386 -54.43632581 794.23839536 -54.44629765 797.54272842 C-54.44179042 798.51051891 -54.4372832 799.47830939 -54.43263939 800.47542685 C-54.43779872 801.34928536 -54.44295805 802.22314387 -54.44827372 803.12348294 C-54.44853838 803.87997623 -54.44880305 804.63646951 -54.44907573 805.41588683 C-54.69963074 807.26069641 -54.69963074 807.26069641 -56.69963074 809.26069641 C-59.25151062 809.51237869 -59.25151062 809.51237869 -62.54533386 809.5146637 C-63.79048767 809.52030334 -65.03564148 809.52594299 -66.31852722 809.53175354 C-67.70597897 809.52786458 -69.09343015 809.52376822 -70.48088074 809.51948547 C-71.93604203 809.52219429 -73.39120195 809.52575461 -74.84635925 809.53010559 C-78.80496057 809.53924489 -82.76345796 809.53567903 -86.72206116 809.52934742 C-90.85846748 809.52429537 -94.99486471 809.52897665 -99.13127136 809.53211975 C-106.07855329 809.53576172 -113.02579275 809.53095425 -119.97306824 809.5214386 C-128.01310378 809.5105536 -136.0530379 809.51407901 -144.09307098 809.52509141 C-150.98736186 809.53415772 -157.88162214 809.53545279 -164.77591705 809.53021407 C-168.89739648 809.52709075 -173.01882818 809.52669493 -177.14030457 809.53328705 C-181.01444768 809.53905037 -184.88845961 809.53508234 -188.7625885 809.52349854 C-190.18724855 809.52084649 -191.61191958 809.52162627 -193.03657532 809.52602386 C-194.97568883 809.5314591 -196.91482637 809.52344643 -198.85392761 809.5146637 C-199.94088928 809.51390965 -201.02785095 809.51315559 -202.14775085 809.51237869 C-204.69963074 809.26069641 -204.69963074 809.26069641 -206.69963074 807.26069641 C-206.9499184 805.41224881 -206.9499184 805.41224881 -206.95032907 803.11460286 C-206.9553361 802.23875013 -206.96034314 801.36289739 -206.9655019 800.46050367 C-206.96081957 799.49047278 -206.95613724 798.52044189 -206.95131302 797.52101612 C-206.9542199 796.49231446 -206.95712678 795.46361279 -206.96012175 794.40373835 C-206.96748866 790.91612468 -206.9604473 787.42868329 -206.95359802 783.94107056 C-206.95589987 781.43135763 -206.95907452 778.92164538 -206.96305251 776.41193455 C-206.96969025 770.93396303 -206.97004359 765.45604534 -206.96495819 759.97807312 C-206.95741575 751.83124095 -206.96124925 743.68444219 -206.96737481 735.53761027 C-206.97792907 720.98426335 -206.97698375 706.43093394 -206.97121698 691.87758534 C-206.96619012 679.12876827 -206.96487042 666.37995762 -206.96726227 653.63113976 C-206.96741504 652.78617087 -206.96756781 651.94120199 -206.96772521 651.07062799 C-206.96834789 647.64057735 -206.96898468 644.21052671 -206.96964474 640.78047608 C-206.97576984 608.5660498 -206.97020668 576.35163467 -206.95945094 544.13721011 C-206.94997704 515.54498405 -206.95079298 486.95277582 -206.96037292 458.36054993 C-206.97109987 426.2375504 -206.97531742 394.11456076 -206.9691484 361.99155968 C-206.96850699 358.56116784 -206.96788131 355.13077599 -206.96726227 351.70038414 C-206.96710411 350.85573978 -206.96694596 350.01109541 -206.96678301 349.14085576 C-206.96451356 336.41765511 -206.96715874 323.69446163 -206.97222137 310.97126198 C-206.97795894 296.47959688 -206.97647073 281.98795206 -206.96565989 267.49628947 C-206.95981696 259.39825061 -206.95936054 251.30025571 -206.96695224 243.20221805 C-206.97201072 237.13322228 -206.9664652 231.06428249 -206.95700309 224.99529006 C-206.95478735 222.55619569 -206.95586371 220.11709537 -206.96075466 217.6780049 C-207.07385435 156.53559023 -191.50352068 102.65154117 -148.07463074 58.26069641 C-119.00540076 29.29975413 -80.34343475 12.45990548 -40.69963074 3.94819641 C-40.02061707 3.80108215 -39.34160339 3.6539679 -38.64201355 3.50239563 C-25.80861254 0.91086094 -13.06964377 -0.03788056 0 0 Z " fill="#2676BF" transform="translate(1909.6996307373047,628.7393035888672)"/>
<path d="M0 0 C174.24 0 348.48 0 528 0 C528 170.61 528 341.22 528 517 C353.76 517 179.52 517 0 517 C0 346.39 0 175.78 0 0 Z " fill="#331F9B" transform="translate(998,1362)"/>
<path d="M0 0 C173.91 0 347.82 0 527 0 C527 166.98 527 333.96 527 506 C353.09 506 179.18 506 0 506 C0 339.02 0 172.04 0 0 Z " fill="#00ABD6" transform="translate(998,185)"/>
<path d="M0 0 C174.24 0 348.48 0 528 0 C528 166.32 528 332.64 528 504 C353.76 504 179.52 504 0 504 C0 337.68 0 171.36 0 0 Z " fill="#2C6BBB" transform="translate(998,777)"/>
<path d="M0 0 C143.55 0 287.1 0 435 0 C435 150.48 435 300.96 435 456 C291.45 456 147.9 456 0 456 C0 305.52 0 155.04 0 0 Z " fill="#02AAD6" transform="translate(497,299)"/>
<path d="M0 0 C143.55 0 287.1 0 435 0 C435 141.57 435 283.14 435 429 C291.45 429 147.9 429 0 429 C0 287.43 0 145.86 0 0 Z " fill="#2C6CBB" transform="translate(497,812)"/>
<path d="M0 0 C143.55 0 287.1 0 435 0 C435 137.28 435 274.56 435 416 C291.45 416 147.9 416 0 416 C0 278.72 0 141.44 0 0 Z " fill="#33219B" transform="translate(497,1317)"/>
<path d="M0 0 C114.18 0 228.36 0 346 0 C346 114.84 346 229.68 346 348 C231.82 348 117.64 348 0 348 C0 233.16 0 118.32 0 0 Z " fill="#34269D" transform="translate(73,1254)"/>
<path d="M0 0 C114.51 0 229.02 0 347 0 C347 110.88 347 221.76 347 336 C232.49 336 117.98 336 0 336 C0 225.12 0 114.24 0 0 Z " fill="#2D6CBB" transform="translate(72,857)"/>
<path d="M0 0 C114.18 0 228.36 0 346 0 C346 110.88 346 221.76 346 336 C231.82 336 117.64 336 0 336 C0 225.12 0 114.24 0 0 Z " fill="#05A8D5" transform="translate(72,450)"/>
<path d="M0 0 C0.68739258 0.21430664 1.37478516 0.42861328 2.08300781 0.64941406 C21.22545766 6.82063088 39.53097261 17.991172 52 34 C52.92619141 35.06347656 52.92619141 35.06347656 53.87109375 36.1484375 C62.66564528 46.46874943 68.62715655 57.94530533 72.9375 70.75 C73.36107788 72.00744019 73.36107788 72.00744019 73.79321289 73.2902832 C82.30806735 100.08219576 79.41036808 130.05798914 66.94335938 155.12451172 C53.30524213 180.63762024 30.4517404 201.29204958 2.72851562 210.04980469 C0.4915493 210.72278232 -1.75119994 211.36781339 -4 212 C-5.18851563 212.34160156 -6.37703125 212.68320312 -7.6015625 213.03515625 C-36.31477489 220.00280937 -65.33992848 213.11460196 -90.27734375 198.34765625 C-95.62257718 195.0562965 -100.37647548 191.2388137 -105 187 C-105.92425781 186.15695312 -106.84851562 185.31390625 -107.80078125 184.4453125 C-122.52718876 170.39106467 -132.57369243 152.52648557 -138 133 C-138.3196875 131.87851562 -138.639375 130.75703125 -138.96875 129.6015625 C-145.96398195 100.77861605 -139.18189219 71.77370668 -124.34765625 46.72265625 C-121.056268 41.37737652 -117.23852789 36.6238486 -113 32 C-112.16855469 31.08734375 -111.33710938 30.1746875 -110.48046875 29.234375 C-82.50565449 -0.09207743 -38.99164366 -12.23961294 0 0 Z M-96 36 C-96.68707031 36.58394531 -97.37414063 37.16789062 -98.08203125 37.76953125 C-114.70795674 53.14948574 -124.45581942 76.54341834 -125.91845703 98.90087891 C-126.95818912 125.66619764 -118.59989895 150.35880203 -100.6875 170.3125 C-82.76648877 189.43491981 -58.65899996 199.06553074 -32.73828125 200.02734375 C-6.24943431 200.33476865 17.45775049 189.5836787 36.6875 171.75 C54.44385358 152.93619608 63.74118702 128.15710296 63.1796875 102.328125 C61.7699021 76.2164476 51.53656327 53.33470137 32.51953125 35.18359375 C16.0818239 20.93758072 -4.03637005 11.8724758 -26 11 C-27.10408203 10.94005859 -27.10408203 10.94005859 -28.23046875 10.87890625 C-53.97755559 10.14573962 -76.65849756 19.34171177 -96 36 Z " fill="#272727" transform="translate(5530,379)"/>
<path d="M0 0 C7.92 0 15.84 0 24 0 C25.57242553 5.74599004 27.1409477 11.49275938 28.69970703 17.24243164 C29.23097074 19.19747561 29.76448072 21.15191063 30.30029297 23.10571289 C31.07071916 25.91655352 31.8330016 28.72949561 32.59375 31.54296875 C32.83436157 32.41398727 33.07497314 33.2850058 33.32287598 34.18241882 C34.40180168 38.20201899 35.33125007 41.79538258 35 46 C35.66 46 36.32 46 37 46 C37.11786865 44.86755859 37.2357373 43.73511719 37.35717773 42.56835938 C37.94393702 37.89582931 39.05761435 33.44631725 40.28515625 28.90625 C40.50570175 28.07411987 40.72624725 27.24198975 40.95347595 26.38464355 C41.65159516 23.75509884 42.3569182 21.12755096 43.0625 18.5 C43.54019306 16.70585677 44.01741125 14.91158704 44.49414062 13.1171875 C45.65640025 8.74304867 46.82840415 4.37168976 48 0 C55.92 0 63.84 0 72 0 C72.02255243 9.37036254 72.0409159 18.74070718 72.05181217 28.11109066 C72.05704065 32.46168459 72.06413765 36.81225907 72.07543945 41.1628418 C72.08626959 45.35790258 72.0922771 49.55294459 72.09487724 53.74801826 C72.09673126 55.35206968 72.10035144 56.95612003 72.10573006 58.5601635 C72.11294219 60.79916515 72.11399087 63.0380883 72.11352539 65.27709961 C72.115746 66.55395126 72.11796661 67.83080292 72.12025452 69.14634705 C72 72 72 72 71 73 C66.38 73 61.76 73 57 73 C56.67 57.16 56.34 41.32 56 25 C52.04 40.84 48.08 56.68 44 73 C38.72 73 33.44 73 28 73 C24.04 57.16 20.08 41.32 16 25 C15.67 40.84 15.34 56.68 15 73 C10.38 73 5.76 73 1 73 C-0.46041228 70.07917545 -0.11928796 67.51698631 -0.11352539 64.25537109 C-0.11367142 63.56257553 -0.11381744 62.86977997 -0.1139679 62.1559906 C-0.11327018 59.86177459 -0.10548442 57.56763936 -0.09765625 55.2734375 C-0.09579157 53.68445887 -0.0943679 52.09547966 -0.09336853 50.50650024 C-0.08954731 46.32090675 -0.07972039 42.13534787 -0.06866455 37.94976807 C-0.05844194 33.68005847 -0.05386909 29.4103433 -0.04882812 25.140625 C-0.03809778 16.760399 -0.02050416 8.38020779 0 0 Z " fill="#2B2B2B" transform="translate(5496,448)"/>
<path d="M0 0 C19.14 0 38.28 0 58 0 C58 4.29 58 8.58 58 13 C51.07 13 44.14 13 37 13 C37 32.8 37 52.6 37 73 C31.72 73 26.44 73 21 73 C21 53.2 21 33.4 21 13 C14.07 13 7.14 13 0 13 C0 8.71 0 4.42 0 0 Z " fill="#292929" transform="translate(5430,448)"/>
<path d="M0 0 C48.84 0 97.68 0 148 0 C148 0.33 148 0.66 148 1 C147.25032046 1.00331015 146.50064093 1.00662029 145.72824383 1.01003075 C127.50120446 1.09119093 109.27425024 1.18326032 91.047328 1.28752708 C82.23298573 1.33768526 73.41865292 1.38412777 64.60424805 1.421875 C56.92314008 1.45477832 49.24210478 1.49460025 41.56107694 1.54279006 C37.49265269 1.56807163 33.42427674 1.58984796 29.35579491 1.60334396 C25.52842236 1.61614935 21.70121533 1.63818709 17.87393379 1.66738319 C16.46744956 1.67647093 15.06093866 1.68215199 13.65442657 1.68421364 C11.73740962 1.68752757 9.82042936 1.7041655 7.90348816 1.7215271 C6.82959933 1.72705786 5.75571051 1.73258862 4.64927959 1.73828697 C1.7711629 1.81295757 1.7711629 1.81295757 -1 4 C-0.67 2.68 -0.34 1.36 0 0 Z " fill="#41C1E1" transform="translate(5220,629)"/>
<path d="M0 0 C0.66 0.33 1.32 0.66 2 1 C-7.24 10.24 -16.48 19.48 -26 29 C-26.66 28.67 -27.32 28.34 -28 28 C-8.78301887 6.93396226 -8.78301887 6.93396226 0 0 Z " fill="#65C7E4" transform="translate(3688,683)"/>
</svg>
